PathFileType	4	(X/Y/Z)	/Users/rkoike/Documents/python/sports2d/webcam_20250606_145141/webcam_20250606_145141_px_person01.trc
DataRate	CameraRate	NumFrames	NumMarkers	Units	OrigDataRate	OrigDataStartFrame	OrigNumFrames
30	30	6	22	m	30	1509	4026
Frame#	Time	Hip			RHip			RKnee			RAnkle			RBigToe			RSmallToe			RHeel			LHip			LKnee			LAnkle			LBigToe			LSmallToe			LHeel			Neck			Head			Nose			RShoulder			RElbow			RWrist			LShoulder			LElbow			LWrist			
		X1	Y1	Z1	X2	Y2	Z2	X3	Y3	Z3	X4	Y4	Z4	X5	Y5	Z5	X6	Y6	Z6	X7	Y7	Z7	X8	Y8	Z8	X9	Y9	Z9	X10	Y10	Z10	X11	Y11	Z11	X12	Y12	Z12	X13	Y13	Z13	X14	Y14	Z14	X15	Y15	Z15	X16	Y16	Z16	X17	Y17	Z17	X18	Y18	Z18	X19	Y19	Z19	X20	Y20	Z20	X21	Y21	Z21	X22	Y22	Z22
1509	50.31249689440993	560.0015275369723	707.6876649455162	0.0	448.8367724102845	701.6911754869881	0.0	173.89981720462	692.7874832456408	0.0	409.3192687797319	725.0506818586291	0.0	1135.5714668227663	293.9095748762961	0.0	1249.8014322916667	114.4531307220459	0.0			0.0	682.4224414215594	701.1352847496438	0.0	794.9059357482722	699.3534091223019	0.0	1033.7695312500002	234.10156536102298	0.0	1210.2476546499465	390.76007607248084	0.0	1249.801432291667	144.36523938179016	0.0	1173.6548700871806	503.36829283057574	0.0	579.9553748696396	399.3578490785845	0.0	548.3293287244609	136.44119072563566	0.0	536.5946651072356	291.65931694722974	0.0	412.92116780278326	468.56626190559695	0.0	327.7276114939303	674.3505232614197	0.0	248.25562018819127	675.5744395535455	0.0	779.7279120889799	462.84157944953887	0.0	852.3704276900784	711.0625110711693	0.0	622.6417366898503	697.9574949022074	0.0
1510	50.34583850931676	556.9533540826584	705.5710643157904	0.0	449.0770473883359	699.1390547301557	0.0	177.67756673935335	693.8150163457797	0.0	409.3192687797319	725.0506818586291	0.0	1135.5714668227663	293.9095748762961	0.0	1249.8014322916667	114.45313072204588	0.0			0.0	681.3544514815627	697.988394186753	0.0	794.9053660329164	699.3534273810023	0.0	1033.7695312500002	234.10156536102295	0.0	1210.2476546499465	390.76007607248084	0.0	1249.801432291667	144.36523938179016	0.0	1173.6548700871806	503.36829283057574	0.0	581.2119262706067	399.1759371284878	0.0	547.7774904606438	136.62763555371586	0.0	535.8413460870281	289.6026560680781	0.0	413.3010716601508	469.17905059487197	0.0	326.2675359328166	674.7696740740337	0.0	248.17835396822218	671.6436909362056	0.0	780.1047950416038	464.2854124877665	0.0	852.1282770407502	710.7096963025758	0.0	622.9884235769846	695.7903000600362	0.0
1511	50.379180124223595	558.2695418807647	703.6968373686748	0.0	448.22047257964186	698.1845512810793	0.0	185.18035006926723	695.6695611477218	0.0	409.3192687797319	725.0506818586291	0.0	1135.5714668227663	293.9095748762961	0.0	1249.8014322916667	114.45313072204588	0.0			0.0	678.4903038150318	696.4604378393748	0.0	794.9053384649752	699.3534284488153	0.0	1033.7695312500002	234.10156536102298	0.0	1210.2476546499465	390.76007607248084	0.0	1249.801432291667	144.36523938179016	0.0	1173.6548700871806	503.36829283057574	0.0	581.853048102801	398.17786350685276	0.0	548.1542273774004	136.98078807246537	0.0	535.4912863449426	287.5197914528176	0.0	412.9886446500125	470.2027502444594	0.0	324.3754834321205	678.0018324904765	0.0	244.51104276827243	668.153838578809	0.0	779.6148109192239	465.70856424546	0.0	850.9567927058579	711.1910574884624	0.0	623.9695553733085	693.8151460458121	0.0
1512	50.41252173913043	560.8506439331885	703.3855619113025	0.0	444.132071532587	699.3885585512478	0.0	193.55478327658474	697.7164502729495	0.0	409.3192687797319	725.0506818586291	0.0	1135.5714668227663	293.9095748762961	0.0	1249.8014322916667	114.45313072204588	0.0			0.0	678.4172422798022	697.4378892658026	0.0	794.9054398805109	699.3534252894484	0.0	1033.7695312500002	234.10156536102298	0.0	1210.2476546499465	390.76007607248084	0.0	1249.801432291667	144.36523938179016	0.0	1173.6548700871806	503.36829283057574	0.0	581.2727916741197	396.1582252065738	0.0	549.2237209568342	136.7326349704708	0.0	533.9506888068432	285.41930768847465	0.0	413.4439239867336	469.66651597681846	0.0	325.2218357093863	683.079549534659	0.0	242.0220312498202	664.6233009140195	0.0	778.2463532123879	465.8555804363102	0.0	849.7948435399043	712.1668776163186	0.0	624.8304896967322	693.0078001470722	0.0
1513	50.445863354037265	562.6885902481664	703.372592957311	0.0	440.2539527159685	700.3285141305827	0.0	201.5009099086006	699.6659754430814	0.0	409.3192687797319	725.0506818586291	0.0	1135.5714668227663	293.9095748762961	0.0	1249.8014322916667	114.4531307220459	0.0			0.0	681.6035816612593	698.2800797061639	0.0	794.9054820393841	699.3534235606534	0.0	1033.7695312500002	234.10156536102298	0.0	1210.2476546499465	390.76007607248084	0.0	1249.801432291667	144.36523938179016	0.0	1173.6548700871806	503.36829283057574	0.0	580.3668116843525	394.3065976767572	0.0	549.9856118009898	136.0523611237774	0.0	531.5764698598284	284.02314018109814	0.0	414.5183549576279	468.019193388536	0.0	327.157635516574	687.2281992066414	0.0	241.93132813251393	661.1323143459771	0.0	777.6139608941814	464.91153115948066	0.0	849.1987704378797	712.7632832987204	0.0	624.9685824672068	692.6242006672884	0.0
1514	50.479204968944096	564.8486328708847	703.5287227184166	0.0	440.2151419427634	700.7083725283055	0.0	209.14709040682283	701.5506011120253	0.0	409.3192687797319	725.0506818586291	0.0	1135.5714668227663	293.9095748762961	0.0	1249.8014322916667	114.45313072204588	0.0			0.0	682.8250162581942	698.8760444941695	0.0	794.905476188087	699.3534227665515	0.0	1033.7695312500002	234.10156536102295	0.0	1210.2476546499465	390.76007607248084	0.0	1249.801432291667	144.36523938179016	0.0	1173.6548700871806	503.36829283057574	0.0	580.4473922086928	393.2169449180138	0.0	549.863349333279	135.7975057419745	0.0	529.2188512925529	283.52960589940625	0.0	415.32356196256893	466.85265076967687	0.0	328.20334285087705	687.7174791733412	0.0	240.98899391869236	658.6958421764238	0.0	777.8845568745347	463.93575728424975	0.0	848.3637704561412	712.4840957523675	0.0	624.8728294716442	691.1410455646628	0.0
